<svg xmlns="http://www.w3.org/2000/svg" width="88" height="88"><g fill-rule="evenodd" opacity=".1"><circle cx="2.5" cy="2.5" r="2.5"/><circle cx="2.5" cy="39.5" r="2.5"/><circle cx="2.5" cy="21.5" r="2.5"/><circle cx="2.5" cy="57.5" r="2.5"/><circle cx="2.5" cy="76.5" r="2.5"/><circle cx="2.5" cy="11.5" r="2.5"/><circle cx="2.5" cy="48.5" r="2.5"/><circle cx="2.5" cy="30.5" r="2.5"/><circle cx="2.5" cy="66.5" r="2.5"/><circle cx="2.5" cy="85.5" r="2.5"/><circle cx="39.5" cy="2.5" r="2.5"/><circle cx="39.5" cy="39.5" r="2.5"/><circle cx="39.5" cy="21.5" r="2.5"/><circle cx="39.5" cy="11.5" r="2.5"/><circle cx="39.5" cy="48.5" r="2.5"/><circle cx="39.5" cy="30.5" r="2.5"/><circle cx="21.5" cy="2.5" r="2.5"/><circle cx="21.5" cy="39.5" r="2.5"/><circle cx="21.5" cy="21.5" r="2.5"/><circle cx="21.5" cy="57.5" r="2.5"/><circle cx="21.5" cy="11.5" r="2.5"/><circle cx="21.5" cy="48.5" r="2.5"/><circle cx="21.5" cy="30.5" r="2.5"/><circle cx="21.5" cy="66.5" r="2.5"/><circle cx="57.5" cy="2.5" r="2.5"/><circle cx="57.5" cy="21.5" r="2.5"/><circle cx="57.5" cy="11.5" r="2.5"/><circle cx="57.5" cy="30.5" r="2.5"/><circle cx="76.5" cy="2.5" r="2.5"/><circle cx="76.5" cy="11.5" r="2.5"/><circle cx="11.5" cy="2.5" r="2.5"/><circle cx="11.5" cy="39.5" r="2.5"/><circle cx="11.5" cy="21.5" r="2.5"/><circle cx="11.5" cy="57.5" r="2.5"/><circle cx="11.5" cy="76.5" r="2.5"/><circle cx="11.5" cy="11.5" r="2.5"/><circle cx="11.5" cy="48.5" r="2.5"/><circle cx="11.5" cy="30.5" r="2.5"/><circle cx="11.5" cy="66.5" r="2.5"/><circle cx="48.5" cy="2.5" r="2.5"/><circle cx="48.5" cy="39.5" r="2.5"/><circle cx="48.5" cy="21.5" r="2.5"/><circle cx="48.5" cy="11.5" r="2.5"/><circle cx="48.5" cy="30.5" r="2.5"/><circle cx="30.5" cy="2.5" r="2.5"/><circle cx="30.5" cy="39.5" r="2.5"/><circle cx="30.5" cy="21.5" r="2.5"/><circle cx="30.5" cy="57.5" r="2.5"/><circle cx="30.5" cy="11.5" r="2.5"/><circle cx="30.5" cy="48.5" r="2.5"/><circle cx="30.5" cy="30.5" r="2.5"/><circle cx="66.5" cy="2.5" r="2.5"/><circle cx="66.5" cy="21.5" r="2.5"/><circle cx="66.5" cy="11.5" r="2.5"/><circle cx="85.5" cy="2.5" r="2.5"/></g></svg>