<svg xmlns="http://www.w3.org/2000/svg" width="230" height="230"><g fill-rule="evenodd" opacity=".05" transform="matrix(-1 0 0 1 230 0)"><circle cx="7" cy="7" r="7"/><circle cx="7" cy="103" r="7"/><circle cx="7" cy="55" r="7"/><circle cx="7" cy="151" r="7"/><circle cx="7" cy="199" r="7"/><circle cx="7" cy="31" r="7"/><circle cx="7" cy="127" r="7"/><circle cx="7" cy="79" r="7"/><circle cx="7" cy="175" r="7"/><circle cx="7" cy="223" r="7"/><circle cx="103" cy="7" r="7"/><circle cx="103" cy="103" r="7"/><circle cx="103" cy="55" r="7"/><circle cx="103" cy="31" r="7"/><circle cx="103" cy="127" r="7"/><circle cx="103" cy="79" r="7"/><circle cx="55" cy="7" r="7"/><circle cx="55" cy="103" r="7"/><circle cx="55" cy="55" r="7"/><circle cx="55" cy="151" r="7"/><circle cx="55" cy="31" r="7"/><circle cx="55" cy="127" r="7"/><circle cx="55" cy="79" r="7"/><circle cx="55" cy="175" r="7"/><circle cx="151" cy="7" r="7"/><circle cx="151" cy="55" r="7"/><circle cx="151" cy="31" r="7"/><circle cx="151" cy="79" r="7"/><circle cx="199" cy="7" r="7"/><circle cx="199" cy="31" r="7"/><circle cx="31" cy="7" r="7"/><circle cx="31" cy="103" r="7"/><circle cx="31" cy="55" r="7"/><circle cx="31" cy="151" r="7"/><circle cx="31" cy="199" r="7"/><circle cx="31" cy="31" r="7"/><circle cx="31" cy="127" r="7"/><circle cx="31" cy="79" r="7"/><circle cx="31" cy="175" r="7"/><circle cx="127" cy="7" r="7"/><circle cx="127" cy="103" r="7"/><circle cx="127" cy="55" r="7"/><circle cx="127" cy="31" r="7"/><circle cx="127" cy="79" r="7"/><circle cx="79" cy="7" r="7"/><circle cx="79" cy="103" r="7"/><circle cx="79" cy="55" r="7"/><circle cx="79" cy="151" r="7"/><circle cx="79" cy="31" r="7"/><circle cx="79" cy="127" r="7"/><circle cx="79" cy="79" r="7"/><circle cx="175" cy="7" r="7"/><circle cx="175" cy="55" r="7"/><circle cx="175" cy="31" r="7"/><circle cx="223" cy="7" r="7"/></g></svg>