<svg height="511pt" viewBox="0 -38 511.999 511" width="511pt" xmlns="http://www.w3.org/2000/svg" fill="#0088c6"><path d="M249.613 15.5h190.469c7.797 0 14.14 6.344 14.14 14.14v155.356a7.5 7.5 0 1 0 15 0V29.641c0-16.067-13.07-29.141-29.14-29.141H249.613c-4.144 0-7.5 3.355-7.5 7.5s3.356 7.5 7.5 7.5zm0 0"/><path d="M236.82 185.926l58.746 33.914a7.519 7.519 0 0 0 3.75 1.004h.004c1.293 0 2.59-.336 3.75-1.004l58.75-33.914a7.502 7.502 0 0 0 3.75-6.496l-.004-67.836c0-2.68-1.43-5.153-3.75-6.492-.015-.012-.035-.02-.05-.032L303.07 71.18a7.5 7.5 0 0 0-7.5 0l-58.695 33.89-.055.032a7.495 7.495 0 0 0-3.75 6.492v67.836c0 2.68 1.43 5.156 3.75 6.496zm11.25-10.824v-50.516l2.524 1.457 41.226 23.8-.004 50.512zm58.75 25.253v-50.511l41.223-23.801 2.523-1.457.004 50.516zm-7.5-114.02l43.746 25.259-6.445 3.722-37.3 21.536-37.305-21.536-6.442-3.722zm-119.215 61.45a7.497 7.497 0 0 0 7.91-7.066l1.048-18.727a7.503 7.503 0 0 0-4.106-7.113l-16.742-8.457a7.5 7.5 0 0 0-6.766 13.387l4.363 2.203-45.019 25.992V96.02l4.086 2.675a7.49 7.49 0 0 0 10.383-2.168 7.5 7.5 0 0 0-2.168-10.382l-15.696-10.27a7.494 7.494 0 0 0-8.21 0l-15.696 10.27a7.5 7.5 0 0 0 8.215 12.55l4.086-2.675c0 71.492.219 66.777.195 66.675.04.172.078.317.121.461 1.489 5.098 2.051 2.688 59.704 36.82l-4.36 2.204a7.5 7.5 0 0 0 3.387 14.195 7.422 7.422 0 0 0 3.375-.809l16.742-8.453a7.498 7.498 0 0 0 4.106-7.113l-1.047-18.73a7.496 7.496 0 0 0-7.907-7.067 7.493 7.493 0 0 0-7.066 7.906l.27 4.875-45.02-25.988L173.313 135l-.27 4.879a7.49 7.49 0 0 0 7.062 7.906zm0 0"/><path d="M510.398 316.574l-30.273-52.433 21.05-12.157a11.954 11.954 0 0 0 5.962-10.324c0-4.25-2.285-8.207-5.961-10.328l-93.223-53.812c-4.703-2.715-10.32-2.715-15.023 0-4.707 2.714-7.512 7.582-7.516 13.011l-.004 84.996H15V29.641C15 21.844 21.344 15.5 29.14 15.5h190.473c4.14 0 7.5-3.355 7.5-7.5s-3.36-7.5-7.5-7.5H29.141C13.07.5 0 13.574 0 29.64v289.755c0 16.066 13.07 29.14 29.14 29.14h163.497l-7.735 35.8a181 181 0 0 0-9.804 2.806 7.5 7.5 0 1 0 4.53 14.296 167.476 167.476 0 0 1 12.774-3.492c.34-.054.672-.129.996-.226 13.137-2.965 26.946-4.461 41.211-4.461 36.66 0 70.965 10.219 93.95 27.672H140.672c3.98-3.016 8.34-5.844 13.035-8.45a7.501 7.501 0 0 0 2.91-10.199 7.5 7.5 0 0 0-10.199-2.914c-8.785 4.883-16.59 10.488-23.195 16.656a11.426 11.426 0 0 0-2.848 12.622 11.438 11.438 0 0 0 10.703 7.285h207.067c4.757 0 8.957-2.86 10.703-7.285 1.742-4.426.625-9.38-2.852-12.622-15.488-14.46-37.074-25.355-61.664-31.64l-7.75-35.848h163.504c4.477 0 8.8-1.008 12.715-2.91l1.82 3.148c2.207 3.82 6.223 5.961 10.348 5.961 2.02 0 4.066-.515 5.941-1.597l35.121-20.278a11.86 11.86 0 0 0 5.559-7.238c.82-3.078.398-6.289-1.192-9.047zm-242.14 64.434c-10.875-1.809-22.168-2.75-33.645-2.75-11.504 0-22.75.906-33.636 2.707l7.003-32.43h53.254zm171.828-47.473H29.348c-.07 0-.141-.004-.207-.004-7.797 0-14.141-6.34-14.141-14.136v-28.872h370.41v7.645a11.96 11.96 0 0 0 5.965 10.328 11.963 11.963 0 0 0 11.922 0l21.05-12.152 20.91 36.219a14.162 14.162 0 0 1-5.171.972zm25.988 5.078l-4.222-7.312a5.616 5.616 0 0 0-.243-.422l-25.808-44.7a11.871 11.871 0 0 0-7.239-5.558 11.888 11.888 0 0 0-9.05 1.191l-19.098 11.028.043-102.328 88.605 51.148-19.101 11.028c-5.695 3.285-7.652 10.593-4.367 16.289l30.273 52.433zm0 0"/></svg>