<svg xmlns="http://www.w3.org/2000/svg" viewBox="0 0 480.655 480.655" fill="#0088c6"><path d="M464.255 373.681l-.004-.004-.008.008-101.824-101.824a8 8 0 0 0-11.312 0l-22.656 22.664-28.288-28.288 29.152-29.12a120.496 120.496 0 0 0 111.344-32.144c32.61-32.854 43.565-81.461 28.2-125.128a8.001 8.001 0 0 0-5.768-5.128 8.072 8.072 0 0 0-7.424 2.136l-56.8 56.752-42.4-14.136-14.136-42.4 56.752-56.8a8 8 0 0 0-2.992-13.192c-62.431-22.241-131.071 10.34-153.312 72.77a119.99 119.99 0 0 0-4.008 66.718l-29.12 29.152L107.675 73.669l-3.2-34.488a7.999 7.999 0 0 0-4.656-6.544L37.595 4.397a8 8 0 0 0-8.96 1.6l-22.56 22.56a8 8 0 0 0-1.6 8.96l28.24 62.24a8 8 0 0 0 6.552 4.664l34.488 3.2 102.016 101.976-159.4 159.384c-21.828 21.888-21.828 57.312 0 79.2l11.28 11.28c21.89 21.824 57.31 21.824 79.2 0l159.44-159.352 28.288 28.28-22.664 22.672a8 8 0 0 0 0 11.312l101.824 101.816c21.883 21.841 57.317 21.841 79.2 0l11.312-11.312c21.87-21.868 21.872-57.326.004-79.196zM82.987 94.261a8.002 8.002 0 0 0-4.92-2.312l-32.736-3.008-24-52.96 14.72-14.728 52.96 24 3.016 32.728a8.003 8.003 0 0 0 2.304 4.92l104 104.096-11.256 11.256L82.987 94.261zm12.584 353.92c-15.642 15.608-40.966 15.608-56.608 0l-11.28-11.28c-15.608-15.642-15.608-40.966 0-56.608l225.6-225.6a7.999 7.999 0 0 0 2.072-7.728c-14.712-55.622 18.452-112.639 74.074-127.351a104.177 104.177 0 0 1 48.718-1.097l-50.64 50.704a8 8 0 0 0-1.928 8.192l16.96 50.88a8 8 0 0 0 5.064 5.056l50.88 16.952a8 8 0 0 0 8.176-1.92l50.712-50.64c12.353 56.066-23.084 111.531-79.15 123.884a103.945 103.945 0 0 1-49.306-1.116 7.928 7.928 0 0 0-7.72 2.072l-225.624 225.6zm182.032-159.384l9.088-9.088 2.16-2.16 28.32 28.288-11.28 11.28-28.288-28.32zm175.328 152.768v.032l-11.312 11.28c-15.632 15.594-40.936 15.594-56.568 0l-96.168-96.16 67.88-67.888 96.168 96.168c15.621 15.621 15.621 40.947 0 56.568z"/></svg>