<svg xmlns="http://www.w3.org/2000/svg" viewBox="0 0 512 512" fill="#0088c6"><path d="M376.3 2.2C374.9.8 372.97 0 371 0H181a7.51 7.51 0 0 0-7.5 7.5v33.84c0 4.14 3.36 7.51 7.5 7.51 4.13 0 7.5-3.37 7.5-7.51V15h175v145.01H271c-.95 0-1.91.19-2.78.54l-39.72 15.87v-8.91c0-1.97-.8-3.9-2.2-5.3a7.528 7.528 0 0 0-5.3-2.2h-32.5V71.34c0-4.13-3.37-7.49-7.5-7.49-4.14 0-7.5 3.36-7.5 7.49v96.17c0 1.98.8 3.91 2.2 5.31a7.54 7.54 0 0 0 5.299 2.19h32.5v12.49a7.5 7.5 0 0 0 3.29 6.21c1.25.84 2.7 1.29 4.21 1.29.96 0 1.9-.181 2.78-.54l48.66-19.45H371c1.97 0 3.899-.8 5.3-2.19a7.547 7.547 0 0 0 2.2-5.31V7.5c0-1.981-.8-3.91-2.2-5.3zm84.699 424.802h-22.496l.008-16.605c18.366-16.047 29.988-39.624 29.988-65.866v-28.774c5.86-29.478 3.172-51.338-8.002-64.968-7.043-8.592-15.773-11.867-21.998-13.092v-33.194c0-4.143-3.357-7.5-7.5-7.5-2.846 0-5.762-.016-8.73-.031-3.103-.017-6.264-.033-9.461-.033-36.182 0-76.803 2.289-100.933 29.622-17.357 19.661-23.367 48.697-18.377 88.765v29.206c0 26.249 11.628 49.832 30.002 65.879v16.593H301c-20.678 0-37.5 16.822-37.5 37.5V504.5c0 4.143 3.357 7.5 7.5 7.5h219.999c4.143 0 7.5-3.357 7.5-7.5v-39.959l.001-.039c0-20.678-16.823-37.5-37.501-37.5zM323.122 236.487c19.997-22.653 56.78-24.55 89.688-24.55 3.17 0 6.304.017 9.381.033l1.31.007v32.525c0 2.07.819 4.051 2.328 5.469a7.411 7.411 0 0 0 5.567 2.02c.683-.04 10.571-.147 17.503 8.307 5.119 6.245 7.673 15.827 7.616 28.25l-3.26-6.518a7.497 7.497 0 0 0-8.985-3.792c-.446.142-44.884 14.206-70.518 14.206-24.588 0-46.836-13.331-47.049-13.46a7.498 7.498 0 0 0-9.91 1.899l-9.898 13.198c-.605-25.359 4.828-44.683 16.227-57.594zM308.5 344.53v-27.589l16.42-21.893c9.248 4.599 28.004 12.396 48.832 12.396 22.214 0 55.286-9.022 68.919-13.042l10.829 21.659v28.469c0 39.961-32.523 72.472-72.5 72.472s-72.5-32.511-72.5-72.472zm115.006 76.432l-.005 9.524-23.031 15.358-11.971-5.98v-8.187a86.885 86.885 0 0 0 35.007-10.715zM373.5 431.678v7.746l-16.221 6.488-18.777-15.016v-9.929a86.87 86.87 0 0 0 34.998 10.711zM343.5 497h-34.999v-15H343.5v15zm139.999-32.498V497H358.5v-22.5c0-4.143-3.357-7.5-7.5-7.5h-49.998a7.499 7.499 0 0 0-7.5 7.5V497h-15v-32.498c0-12.406 10.094-22.5 22.5-22.5h27.37l22.952 18.353c.066.053.141.088.208.139a7.833 7.833 0 0 0 1.063.668c.215.109.436.203.658.291.149.059.296.123.447.172.247.08.5.137.755.191.127.027.251.065.378.086.387.062.779.098 1.176.098.262 0 .523-.018.787-.045.046-.006.092-.015.139-.021.206-.025.411-.059.617-.102.084-.018.167-.04.251-.061a7.075 7.075 0 0 0 .794-.243c.064-.023.131-.041.195-.067l21.866-8.746 17.001 8.492c.115.058.234.099.35.15.136.059.269.123.406.174.188.069.376.122.565.175.091.025.18.059.271.08.266.064.531.111.799.146.023.002.044.008.066.012.296.035.593.055.888.055.353 0 .702-.026 1.049-.075.151-.022.301-.064.452-.095.191-.039.384-.072.571-.125.152-.045.302-.107.452-.16.187-.067.373-.131.554-.211.132-.061.26-.134.39-.201.195-.102.389-.205.575-.324.04-.026.084-.043.124-.07l28.099-18.736H461c12.398 0 22.486 10.08 22.5 22.475l-.001.025zm-272.5-37.5h-32.496l.005-9.051c24.049-15.605 39.991-42.686 39.991-73.421v-16.528l9.977 3.563a7.506 7.506 0 0 0 6.843-.932 7.499 7.499 0 0 0 3.18-6.131c0-45.011-8.666-78.434-25.758-99.337-14.041-17.173-33.342-25.88-57.368-25.88-28.005 0-54.249 12.031-63.574 16.814l-17.576-8.368a7.497 7.497 0 0 0-6.981.28c-3.008 1.741-29.189 18.954-23.743 86.77v49.749c0 30.739 15.946 57.822 40 73.427v9.045H51c-20.678 0-37.5 16.822-37.5 37.5V504.5A7.5 7.5 0 0 0 21 512h219.998a7.5 7.5 0 0 0 7.5-7.5v-39.959l.002-.039c-.001-20.678-16.823-37.5-37.501-37.5zM72.221 223.391l16.555 7.882a7.507 7.507 0 0 0 6.959-.268c.292-.168 29.521-16.72 59.639-16.72 42.943 0 65.776 33.469 67.954 99.513L93.522 267.439a7.498 7.498 0 0 0-5.876.356l-29.799 14.899c-1.093-37.574 9.299-53.711 14.374-59.303zM58.5 344.53v-45.394l32.992-16.495L203.5 322.644v21.886c0 39.961-32.523 72.472-72.5 72.472s-72.5-32.511-72.5-72.472zm105.004 81.21l-.005 8.758v.003c0 17.921-14.58 32.5-32.5 32.5s-32.5-14.579-32.5-32.5v-8.759a87.088 87.088 0 0 0 32.5 6.26 87.088 87.088 0 0 0 32.505-6.262zm69.994 38.762V497H28.5v-32.498c0-12.406 10.093-22.5 22.5-22.5h33.098c3.608 22.639 23.263 39.999 46.902 39.999s43.294-17.36 46.902-39.999H211c12.398 0 22.485 10.08 22.499 22.475l-.001.025z"/><path d="M298.979 39.51c-6.14-6.13-14.3-9.51-22.979-9.52-8.69.01-16.851 3.39-22.98 9.52-6.14 6.14-9.52 14.3-9.52 22.98 0 4.14 3.36 7.5 7.5 7.5 4.13 0 7.5-3.36 7.5-7.5v-.011c.01-4.67 1.83-9.05 5.13-12.35 3.3-3.3 7.689-5.13 12.37-5.14 4.67.01 9.06 1.84 12.359 5.14a17.386 17.386 0 0 1 5.141 12.36c-.01 4.68-1.83 9.069-5.141 12.369a17.422 17.422 0 0 1-12.264 5.136c-.032-.001-.064-.005-.096-.005-4.141 0-7.5 3.369-7.5 7.51v20c0 4.13 3.359 7.5 7.5 7.5 4.13 0 7.5-3.37 7.5-7.5V94.117h.001c5.812-1.367 11.149-4.318 15.479-8.647 6.13-6.13 9.511-14.29 9.521-22.98-.01-8.681-3.391-16.841-9.521-22.98zM276 120a7.501 7.501 0 0 0-7.5 7.5v9.99c0 4.14 3.359 7.5 7.5 7.5 4.13 0 7.5-3.36 7.5-7.5v-9.99c0-4.141-3.371-7.5-7.5-7.5z"/></svg>