<svg height="415pt" viewBox="0 -6 415.846 415" width="415pt" xmlns="http://www.w3.org/2000/svg" fill="#0088c6"><path d="M380.367 209.777c-.617-19.382-16.496-34.78-35.887-34.8h-54.253a.234.234 0 0 1-.165-.079l-15.46-16.918v-53.55c-.024-19.649-15.82-35.637-35.465-35.903-.625-19.382-16.508-34.78-35.903-34.804H148.98a.2.2 0 0 1-.164-.07l-19.687-21.54A35.971 35.971 0 0 0 102.617.422H37.762C17.934.445 1.867 16.512 1.848 36.34v189.437c.02 19.825 16.086 35.891 35.914 35.914H143.09v105.336c.027 19.825 16.094 35.891 35.918 35.91h200.93c19.824-.023 35.886-16.085 35.91-35.91V245.672c-.028-19.652-15.828-35.64-35.48-35.895zM37.762 247.691c-12.098-.011-21.903-9.816-21.914-21.914V36.34c.011-12.098 9.816-21.903 21.914-21.918h64.855a21.939 21.939 0 0 1 16.172 7.133l19.691 21.539a14.232 14.232 0 0 0 10.5 4.625h54.254c11.668.015 21.282 9.152 21.887 20.8h-126.5c-19.82.02-35.89 16.083-35.914 35.907v121.351c-.012 12.094-9.812 21.899-21.906 21.914zm105.328-70.105v70.11H69.219a35.742 35.742 0 0 0 7.492-21.919V104.43c.016-12.098 9.816-21.899 21.914-21.907h140.07c12.094.012 21.895 9.813 21.907 21.907v41.398a35.976 35.976 0 0 0-16.73-4.152h-64.864c-19.828.02-35.895 16.082-35.918 35.91zm35.918 211.351c-12.098-.011-21.903-9.808-21.918-21.906V177.586c.015-12.098 9.82-21.895 21.918-21.906h64.863a21.97 21.97 0 0 1 16.172 7.12l19.68 21.54a14.285 14.285 0 0 0 10.5 4.637h54.257c11.66.007 21.278 9.144 21.887 20.793h-126.5c-19.824.02-35.887 16.082-35.906 35.906v121.351c-.02 12.098-9.82 21.899-21.918 21.91zm222.84-21.906c-.016 12.094-9.817 21.895-21.91 21.906H210.483c.07-.085.133-.175.203-.261l.325-.442c.215-.289.425-.586.629-.886a13.2 13.2 0 0 0 .312-.453c.211-.32.418-.641.621-.97.082-.132.164-.26.246-.398a37.12 37.12 0 0 0 1.551-2.847l.188-.41c.168-.356.332-.711.488-1.07.07-.173.144-.345.215-.516.136-.336.273-.676.398-1.02l.2-.531c.132-.363.253-.727.37-1.094.051-.156.102-.309.153-.469.324-1.043.597-2.11.824-3.199.035-.16.063-.328.094-.488.074-.383.144-.766.203-1.153.031-.199.059-.398.086-.597.055-.36.097-.723.14-1.086.024-.2.047-.41.067-.613.035-.387.062-.774.086-1.16.012-.18.027-.36.035-.54a35.47 35.47 0 0 0 .043-1.71V245.671c.016-12.094 9.816-21.895 21.906-21.906h140.07c12.094.011 21.895 9.812 21.91 21.906zm0 0"/><path d="M27.57 322.285A46.185 46.185 0 0 1 14 289.363a6.97 6.97 0 0 0-2.055-4.933A6.957 6.957 0 0 0 7 282.406c-3.871.02-7 3.164-7 7.035a60.407 60.407 0 0 0 17.691 42.762 60.405 60.405 0 0 0 42.762 17.7h40.531l-18.382 18.913a6.998 6.998 0 0 0 .14 9.899 6.998 6.998 0 0 0 9.899-.14l29.375-30.223a6.998 6.998 0 0 0 .02-9.739L92.66 308.13a7.006 7.006 0 0 0-9.898-.184 6.999 6.999 0 0 0-.184 9.899l17.402 18.058H60.38a46.1 46.1 0 0 1-32.809-13.617zm0 0"/></svg>